<?xml version="1.0" encoding="utf-8"?>
<!-- Generator: Adobe Illustrator 16.0.0, SVG Export Plug-In . SVG Version: 6.00 Build 0)  -->
<!DOCTYPE svg PUBLIC "-//W3C//DTD SVG 1.1//EN" "http://www.w3.org/Graphics/SVG/1.1/DTD/svg11.dtd">
<svg version="1.1" id="Layer_1" xmlns="http://www.w3.org/2000/svg" xmlns:xlink="http://www.w3.org/1999/xlink" x="0px" y="0px"
	 width="200px" height="200px" viewBox="0 0 200 200" enable-background="new 0 0 200 200" xml:space="preserve">
<style>
	*{fill:#ffffff;}
</style>
<g>
	<g>
		<path fill="#181818" d="M200,198.226H3.549v-54.438H200V198.226z M10.649,191.125h182.25v-40.237H10.649V191.125z"/>
		<g>
			<rect x="177.12" y="147.338" fill="#181818" width="7.101" height="15.778"/>
			<rect x="161.342" y="147.338" fill="#181818" width="7.101" height="15.778"/>
			<rect x="145.563" y="147.338" fill="#181818" width="7.101" height="15.778"/>
			<rect x="129.783" y="147.338" fill="#181818" width="7.101" height="15.778"/>
			<rect x="114.004" y="147.338" fill="#181818" width="7.101" height="15.778"/>
			<rect x="98.224" y="147.338" fill="#181818" width="7.101" height="15.778"/>
			<rect x="82.445" y="147.338" fill="#181818" width="7.101" height="15.778"/>
			<rect x="66.666" y="147.338" fill="#181818" width="7.101" height="15.778"/>
			<rect x="50.887" y="147.338" fill="#181818" width="7.101" height="15.778"/>
			<rect x="35.107" y="147.338" fill="#181818" width="7.101" height="15.778"/>
			<rect x="19.328" y="147.338" fill="#181818" width="7.101" height="15.778"/>
		</g>
	</g>
	<g>
		<polygon fill="#181818" points="21.461,123.265 21.461,106.679 7.099,114.975 		"/>
		<rect x="52.409" y="111.423" fill="#181818" width="110.875" height="7.101"/>
		<polygon fill="#181818" points="34.047,134.633 0,114.975 34.047,95.311 37.599,101.459 14.2,114.975 37.598,128.484 		"/>
		<path fill="#181818" d="M163.283,135.108H35.822c-1.436,0-2.73-0.864-3.279-2.191c-0.548-1.326-0.246-2.854,0.771-3.869
			l14.075-14.076l-14.075-14.076c-1.017-1.016-1.319-2.543-0.771-3.87c0.549-1.327,1.843-2.191,3.279-2.191l0,0l127.461,0.003
			c1.96,0,3.55,1.59,3.55,3.55v33.17C166.833,133.519,165.243,135.108,163.283,135.108z M44.393,128.008h115.339v-26.069
			l-115.338-0.003l10.524,10.526c1.387,1.387,1.387,3.633,0,5.02L44.393,128.008z"/>
		<path fill="#181818" d="M179.866,135.108h-16.583c-1.96,0-3.551-1.59-3.551-3.55v-33.17c0-0.941,0.373-1.845,1.039-2.51
			c0.665-0.666,1.568-1.04,2.512-1.04l0,0l16.583,0.003c1.96,0,3.551,1.59,3.551,3.55v33.167
			C183.417,133.519,181.826,135.108,179.866,135.108z M166.833,128.008h9.483v-26.066l-9.483-0.003V128.008z"/>
		<path fill="#181818" d="M179.866,135.108v-7.101c3.479,0,6.756-1.355,9.221-3.818c2.46-2.462,3.815-5.735,3.813-9.212
			c0-3.486-1.355-6.76-3.815-9.219c-2.462-2.461-5.732-3.817-9.205-3.817c-0.003,0-0.006,0-0.01,0l-0.006-7.101
			c0.006,0,0.01,0,0.016,0c5.368,0,10.42,2.094,14.226,5.896c3.803,3.802,5.896,8.859,5.896,14.238
			c0.003,5.372-2.089,10.43-5.893,14.235C190.299,133.015,185.241,135.108,179.866,135.108z"/>
	</g>
	<g>
		<polygon fill="#181818" points="87.934,9.27 80.833,9.27 80.833,8.875 80.438,8.875 80.438,1.775 87.934,1.775 		"/>
		<path fill="#181818" d="M72.729,8.875h-7.71V1.775h7.71V8.875z M57.309,8.875h-7.711V1.775h7.711V8.875z M41.887,8.875h-7.71
			V1.775h7.71V8.875z M26.466,8.875h-7.711V1.775h7.711V8.875z"/>
		<polygon fill="#181818" points="10.649,9.27 3.549,9.27 3.549,1.775 11.044,1.775 11.044,8.875 10.649,8.875 		"/>
		<path fill="#181818" d="M10.649,70.954H3.549v-7.709h7.101V70.954z M10.649,55.533H3.549v-7.711h7.101V55.533z M10.649,40.112
			H3.549v-7.709h7.101V40.112z M10.649,24.691H3.549V16.98h7.101V24.691z"/>
		<polygon fill="#181818" points="11.044,86.159 3.549,86.159 3.549,78.664 10.649,78.664 10.649,79.059 11.044,79.059 		"/>
		<path fill="#181818" d="M72.728,86.159h-7.711v-7.101h7.711V86.159z M57.308,86.159h-7.711v-7.101h7.711V86.159z M41.887,86.159
			h-7.71v-7.101h7.71V86.159z M26.466,86.159h-7.711v-7.101h7.711V86.159z"/>
		<polygon fill="#181818" points="87.934,86.159 80.438,86.159 80.438,79.059 80.833,79.059 80.833,78.664 87.934,78.664 		"/>
		<path fill="#181818" d="M87.934,70.954h-7.101v-7.711h7.101V70.954z M87.934,55.532h-7.101v-7.709h7.101V55.532z M87.934,40.112
			h-7.101v-7.711h7.101V40.112z M87.934,24.69h-7.101V16.98h7.101V24.69z"/>
	</g>
	<path fill="#181818" d="M67.439,65.665H24.046V22.272h43.393V65.665z M31.147,58.564h29.191V29.373H31.147V58.564z"/>
	<g>
		<rect x="107.689" y="40.418" fill="#181818" width="22.091" height="7.101"/>
		<path fill="#181818" d="M125.046,71.188h-12.623c-4.567,0-8.284-3.717-8.284-8.284v-37.87c0-4.567,3.717-8.284,8.284-8.284h12.623
			c4.567,0,8.284,3.717,8.284,8.284v37.87C133.33,67.471,129.613,71.188,125.046,71.188z M112.423,23.85
			c-0.641,0-1.184,0.542-1.184,1.184v37.87c0,0.641,0.543,1.183,1.184,1.183h12.623c0.642,0,1.184-0.542,1.184-1.183v-37.87
			c0-0.641-0.542-1.184-1.184-1.184H112.423z"/>
	</g>
	<g>
		<path fill="#181818" d="M180.541,86.159h-11.557c-10.725,0-19.449-8.726-19.449-19.453V21.225c0-10.725,8.725-19.45,19.449-19.45
			h11.557C191.27,1.775,200,10.5,200,21.225v45.482C200,77.433,191.27,86.159,180.541,86.159z M168.984,8.875
			c-6.811,0-12.349,5.54-12.349,12.349v45.482c0,6.811,5.538,12.352,12.349,12.352h11.557c6.814,0,12.358-5.541,12.358-12.352
			V21.225c0-6.81-5.544-12.349-12.358-12.349H168.984z"/>
		<path fill="#181818" d="M178.313,21.949c0,1.958-1.588,3.555-3.554,3.555c-1.96,0-3.547-1.596-3.547-3.555
			c0-1.973,1.587-3.558,3.547-3.558C176.726,18.391,178.313,19.976,178.313,21.949z"/>
	</g>
</g>
</svg>
