<?xml version="1.0" encoding="utf-8"?>
<!-- Generator: Adobe Illustrator 16.0.0, SVG Export Plug-In . SVG Version: 6.00 Build 0)  -->
<!DOCTYPE svg PUBLIC "-//W3C//DTD SVG 1.1//EN" "http://www.w3.org/Graphics/SVG/1.1/DTD/svg11.dtd">
<svg version="1.1" id="Layer_1" xmlns="http://www.w3.org/2000/svg" xmlns:xlink="http://www.w3.org/1999/xlink" x="0px" y="0px"
	 width="200px" height="200px" viewBox="0 0 200 200" enable-background="new 0 0 200 200" xml:space="preserve">
<style>
	*{fill:#ffffff;}
</style>
<g>
	<g>
		<rect x="95.318" y="17.656" fill="#181818" width="7.614" height="6.853"/>
		<rect x="82.883" y="175.521" fill="#181818" width="32.482" height="6.853"/>
		<path fill="#181818" d="M138.467,198.605H61.542c-9.381,0-17.013-7.625-17.013-16.999V18.411c0-9.382,7.632-17.016,17.013-17.016
			h76.925c9.377,0,17.005,7.634,17.005,17.016v163.195C155.472,190.98,147.844,198.605,138.467,198.605z M61.542,8.248
			c-5.602,0-10.161,4.558-10.161,10.163v163.195c0,5.595,4.559,10.146,10.161,10.146h76.925c5.598,0,10.151-4.551,10.151-10.146
			V18.411c0-5.605-4.554-10.163-10.151-10.163H61.542z"/>
		<rect x="47.955" y="33.913" fill="#181818" width="104.09" height="6.853"/>
		<rect x="47.955" y="159.264" fill="#181818" width="104.09" height="6.853"/>
		<g>
			<g>
				<path fill="#181818" d="M81.547,70.932H60.754V50.138h20.793V70.932z M67.606,64.079h7.088v-7.088h-7.088V64.079z"/>
				<path fill="#181818" d="M110.398,70.932H89.603V50.138h20.795V70.932z M96.456,64.079h7.089v-7.088h-7.089V64.079z"/>
				<path fill="#181818" d="M139.249,70.932h-20.796V50.138h20.796V70.932z M125.306,64.079h7.091v-7.088h-7.091V64.079z"/>
			</g>
			<g>
				<path fill="#181818" d="M81.547,97.253H60.754V76.459h20.793V97.253z M67.606,90.4h7.088v-7.088h-7.088V90.4z"/>
				<path fill="#181818" d="M110.398,97.253H89.602V76.459h20.797V97.253z M96.455,90.4h7.09v-7.088h-7.09V90.4z"/>
			</g>
			<g>
				<path fill="#181818" d="M81.547,149.895H60.754v-20.794h20.793V149.895z M67.606,143.042h7.088v-7.088h-7.088V143.042z"/>
				<path fill="#181818" d="M110.398,149.895H89.603v-20.794h20.795V149.895z M96.456,143.042h7.089v-7.088h-7.089V143.042z"/>
				<path fill="#181818" d="M139.249,149.895h-20.796v-20.794h20.796V149.895z M125.306,143.042h7.091v-7.088h-7.091V143.042z"/>
			</g>
		</g>
	</g>
	<g>
		<path fill="#181818" d="M34.559,56.991h-6.927v-6.853h6.927V56.991z M20.706,56.991H13.78v-6.853h6.925V56.991z"/>
		<rect y="50.138" fill="#181818" width="6.853" height="6.853"/>
		<path fill="#181818" d="M6.853,136.422H0v-6.619h6.853V136.422z M6.853,123.184H0v-6.618h6.853V123.184z M6.853,109.944H0v-6.617
			h6.853V109.944z M6.853,96.706H0v-6.618h6.853V96.706z M6.853,83.469H0v-6.62h6.853V83.469z M6.853,70.23H0v-6.62h6.853V70.23z"/>
		<rect y="143.042" fill="#181818" width="6.853" height="6.853"/>
		<path fill="#181818" d="M34.557,149.895h-6.926v-6.853h6.926V149.895z M20.704,149.895H13.78v-6.853h6.924V149.895z"/>
	</g>
	<g>
		<rect x="163.466" y="50.138" fill="#181818" width="36.534" height="6.853"/>
		<rect x="163.466" y="63.41" fill="#181818" width="36.534" height="6.853"/>
		<rect x="163.466" y="76.683" fill="#181818" width="36.534" height="6.853"/>
		<rect x="163.466" y="89.954" fill="#181818" width="36.534" height="6.853"/>
		<rect x="163.466" y="103.226" fill="#181818" width="36.534" height="6.853"/>
		<rect x="163.466" y="116.497" fill="#181818" width="36.534" height="6.853"/>
		<rect x="163.466" y="129.771" fill="#181818" width="36.534" height="6.853"/>
		<rect x="163.466" y="143.042" fill="#181818" width="36.534" height="6.853"/>
	</g>
</g>
</svg>
