<?xml version="1.0" encoding="utf-8"?>
<!-- Generator: Adobe Illustrator 16.0.0, SVG Export Plug-In . SVG Version: 6.00 Build 0)  -->
<!DOCTYPE svg PUBLIC "-//W3C//DTD SVG 1.1//EN" "http://www.w3.org/Graphics/SVG/1.1/DTD/svg11.dtd">
<svg version="1.1" id="Layer_1" xmlns="http://www.w3.org/2000/svg" xmlns:xlink="http://www.w3.org/1999/xlink" x="0px" y="0px"
	 width="200px" height="200px" viewBox="0 0 200 200" enable-background="new 0 0 200 200" xml:space="preserve">
<style>
	*{fill:#000000;}
</style>
<g>
	<g>
		<polygon fill="#181818" points="124.726,170.404 84.731,170.404 84.731,154.46 90.59,154.46 90.59,164.545 118.866,164.545 
			118.866,154.46 124.726,154.46 		"/>
		<rect x="76.737" y="164.545" fill="#181818" width="55.983" height="5.859"/>
		<path fill="#181818" d="M179.103,92.888h-5.858V37.567c0-0.557-0.225-1.09-0.632-1.499c-0.395-0.397-0.921-0.613-1.485-0.613
			H38.332c-0.567,0-1.101,0.221-1.504,0.622c-0.389,0.39-0.609,0.924-0.609,1.49v43.514H30.36V37.567
			c0-2.124,0.825-4.125,2.324-5.632c1.519-1.512,3.521-2.338,5.647-2.338h132.795c2.138,0,4.139,0.83,5.637,2.338
			c1.508,1.512,2.339,3.513,2.339,5.632V92.888z"/>
		<g>
			<g>
				<polygon fill="#181818" points="155.268,117.65 140.264,117.65 140.264,77.455 164.456,77.455 164.456,92.888 158.598,92.888 
					158.598,83.314 146.122,83.314 146.122,111.791 155.268,111.791 				"/>
				<path fill="#181818" d="M108.511,77.455v40.195h24.194V77.455H108.511z M126.846,111.791h-12.477V83.314h12.477V111.791z"/>
				<path fill="#181818" d="M76.758,77.455v40.195h24.194V77.455H76.758z M95.094,111.791H82.617V83.314h12.477V111.791z"/>
			</g>
			<path fill="#181818" d="M45.007,44.292v25.271h119.449V44.292H45.007z M158.598,63.704H50.866V50.15h107.732V63.704z"/>
		</g>
		<polygon fill="#181818" points="158.197,149.049 65.945,149.049 65.945,143.19 152.338,143.19 152.338,132.248 65.945,132.248 
			65.945,126.39 158.197,126.39 		"/>
	</g>
	<g>
		<g>
			<rect x="168.705" y="153.867" fill="#181818" width="14.923" height="5.859"/>
			<path fill="#181818" d="M191.75,170.404h-31.159c-4.55,0-8.253-3.699-8.253-8.247v-63.95c0-4.549,3.703-8.249,8.253-8.249h31.159
				c4.549,0,8.25,3.7,8.25,8.249v63.95C200,166.705,196.299,170.404,191.75,170.404z M160.591,95.817
				c-1.298,0-2.394,1.095-2.394,2.391v63.95c0,1.317,1.074,2.388,2.394,2.388h31.159c1.318,0,2.392-1.07,2.392-2.388v-63.95
				c0-1.317-1.073-2.391-2.392-2.391H160.591z"/>
		</g>
		<g>
			<path fill="#181818" d="M164.381,102.001v22.962h23.576v-22.962H164.381z M182.099,119.104H170.24V107.86h11.858V119.104z"/>
			<rect x="164.381" y="143.19" fill="#181818" width="23.576" height="5.858"/>
			<rect x="164.381" y="131.147" fill="#181818" width="23.576" height="5.858"/>
		</g>
	</g>
	<g>
		<g>
			<rect x="24.257" y="153.867" fill="#181818" width="20.355" height="5.859"/>
			<path fill="#181818" d="M57.92,170.404H10.956C4.916,170.404,0,165.495,0,159.459V88.412c0-6.042,4.916-10.957,10.956-10.957
				H57.92c6.041,0,10.955,4.916,10.955,10.957v71.047C68.875,165.495,63.96,170.404,57.92,170.404z M10.956,83.314
				c-2.812,0-5.097,2.287-5.097,5.098v71.047c0,2.805,2.286,5.086,5.097,5.086H57.92c2.81,0,5.096-2.281,5.096-5.086V88.412
				c0-2.811-2.286-5.098-5.096-5.098H10.956z"/>
		</g>
		<g>
			<path fill="#181818" d="M37.039,116.351v32.698h18.49v-32.698H37.039z M49.671,143.19h-6.773v-20.981h6.773V143.19z"/>
			<path fill="#181818" d="M13.345,116.351v32.698h18.487v-32.698H13.345z M25.973,143.19h-6.769v-20.981h6.769V143.19z"/>
			<path fill="#181818" d="M13.345,90.8v20.343h42.185V90.8H13.345z M49.671,105.284H19.204v-8.625h30.467V105.284z"/>
		</g>
	</g>
</g>
</svg>
