<?xml version="1.0" encoding="utf-8"?>
<!-- Generator: Adobe Illustrator 20.1.0, SVG Export Plug-In . SVG Version: 6.00 Build 0)  -->
<svg version="1.1" id="Layer_1" xmlns="http://www.w3.org/2000/svg" xmlns:xlink="http://www.w3.org/1999/xlink" x="0px" y="0px"
	 viewBox="0 0 15036 12350.1" style="enable-background:new 0 0 15036 12350.1;" xml:space="preserve">
<style type="text/css">
	.st0{fill:#950200;}
</style>
<g>
	<path d="M537.5,6810.5v-2688H1726c608.3,0,912.5,217.9,912.5,656.8c0,311.9-183.5,510.9-550.6,598.7
		c442.3,89.1,663.4,330,663.4,715.3c0,475.7-297.7,717.2-893,717.2H537.5z M1321.5,5290.5h231.4c219.2,0,328.8-163.1,328.8-490.7
		c0-302.7-116.1-453.3-348.2-453.3h-211.9V5290.5z M1321.5,6586.5h213.9c287.9,0,431.9-166.8,431.9-499.6
		c0-381.3-148.5-572.4-445.5-572.4h-200.2V6586.5z"/>
	<path d="M4873.5,4769.9v2040.6h-704v-324.7c-160,235.9-374.6,353.8-631.4,353.8c-346.3,0-520.6-170.3-520.6-511V4821
		c240-10.5,480-27.5,720-51.1v1541c0,133.7,36.3,200.5,116.8,200.5c212.7,0,315.2-230.6,315.2-691.9V4821
		C4409.5,4810.5,4649.5,4793.5,4873.5,4769.9z"/>
	<path d="M6809.6,5330.1l-344.4,60.9c0-296.1-136.2-444.2-408.6-444.2c-167.3,0-251,69.5-251,208.3c0,102.2,144,212.3,431.9,330.2
		c441,182.2,661.5,413.4,661.5,693.8c0,446.8-280.8,670.2-842.4,670.2c-594.1,0-891.1-223.4-891.1-670.2l365.8-74.7
		c-5.2,43.2-7.8,83.9-7.8,121.9c0,115.3,47.7,215.6,143,300.7c95.3,85.2,207.8,127.8,337.5,127.8c171.2,0,256.8-73.4,256.8-220.1
		c0-98.3-138.1-207-414.4-326.3c-416.3-180.8-624.5-412.8-624.5-695.8c0-187.4,79.8-341,239.3-460.9
		c159.5-119.9,364.4-179.9,614.8-179.9C6521,4771.8,6765.5,4957.9,6809.6,5330.1z"/>
	<path d="M7177.5,6810.5V4119.3c208,0,448-13.8,704-41.3v1083c160-260.7,374-391.1,652.8-391.1c329.4,0,499.2,149.4,499.2,448.1
		v1592.5h-720V5296.6c0-114-36.6-171-111.8-171c-77.8,0-151,73.1-218.4,219.2c-67.5,146.1-101.7,303-101.7,470.7v995H7177.5z"/>
	<path d="M12297.5,4078v2732.5h-704v-179.3c-128,144.2-279.8,216.2-479.5,216.2c-441,0-661.9-342-661.9-1026
		c0-703.7,234.1-1055.5,701-1055.5c184.1,0,328.3,81.9,440.3,245.7v-892.3C11801.5,4119.3,12041.5,4105.5,12297.5,4078z
		 M11381.6,5054.9c-119.4,0-179,110.7-179,332.2l-13.6,420.6l7.8,383.3c0,245.1,67.4,367.6,202.3,367.6
		c131,0,196.5-120.5,196.5-361.7l9.7-483.5l-15.6-330.2C11569,5164.3,11499.6,5054.9,11381.6,5054.9z"/>
	<path d="M13572.3,4769.9c648.5,0,972.8,345.9,972.8,1037.8s-324.3,1037.8-972.8,1037.8c-649.8,0-974.7-345.9-974.7-1037.8
		S12922.5,4769.9,13572.3,4769.9z M13570.3,4944.8c-156.9,0-235.4,287.6-235.4,862.9c0,575.3,78.5,862.9,235.4,862.9
		c158.2,0,237.4-287.6,237.4-862.9C13807.7,5232.5,13728.6,4944.8,13570.3,4944.8z"/>
	<path d="M2919.6,8061.4l-358,66.8c15.6-72.1,23.3-132.3,23.3-180.8c0-311.8-187.4-467.8-562.3-467.8
		c-295.7,0-443.6,107.5-443.6,322.3c0,161.2,165.4,299.4,496.1,414.7c638.1,221.5,957.2,549.1,957.2,982.8
		c0,254.2-89.5,458.3-268.5,612.3c-179,154-417,231-714,231c-657.6,0-986.4-257.5-986.4-772.5c0-41.9,3.2-93.7,9.7-155.3l371.6-82.6
		c-28.6,114-42.8,213-42.8,296.8c0,332.8,188.7,499.2,566.1,499.2c302.2,0,453.3-119.9,453.3-359.7c0-178.2-180.9-334.8-542.8-469.8
		c-522.7-193.9-784-503.8-784-929.7c0-241.1,87.2-435.4,261.7-582.8c174.4-147.4,403.7-221.1,687.7-221.1
		C2627.7,7265.4,2919.6,7530.7,2919.6,8061.4z"/>
	<path d="M4393.5,8026.5v224h-304v1391.2c0,87.8,24.6,131.7,80.4,131.7c40.2,0,62.6-29.5,70.4-88.4l201.5,19.7
		c-55.8,207.1-235.6,310.6-535.2,310.6c-356.7,0-537.1-153.3-537.1-459.9V8250.5h-240v-224h240v-358.2c256-68.1,480-166.4,720-294.8
		v653H4393.5z"/>
	<path d="M6489.5,7961.2v2033.3h-704v-317.4c-176,235.9-374.6,353.8-631.4,353.8c-346.3,0-520.6-170.3-520.6-511V8012.3
		c240-10.5,464-27.5,704-51.1v1541c0,133.7,44.3,200.5,124.8,200.5c212.7,0,323.2-230.6,323.2-691.9v-998.5
		C6009.5,8001.8,6249.5,7984.8,6489.5,7961.2z"/>
	<path d="M8649.5,7269.3v2725.2h-720v-172c-112,144.2-276,216.2-475.8,216.2c-441,0-660.1-342-660.1-1026
		c0-703.7,231.3-1055.5,698.3-1055.5c184.2,0,341.6,81.9,437.6,245.7v-892.3C8153.5,7310.6,8393.5,7296.8,8649.5,7269.3z
		 M7725,8246.2c-119.3,0-179,110.7-179,332.2l-13.6,420.6l7.8,383.3c0,245.1,67.4,367.6,202.3,367.6c131,0,196.5-120.5,196.5-361.7
		l9.7-483.5l-15.6-330.2C7912.4,8355.6,7843,8246.2,7725,8246.2z"/>
	<path d="M11034.3,7961.2c648.5,0,972.8,345.9,972.8,1037.8c0,691.9-324.3,1037.8-972.8,1037.8c-649.8,0-974.7-345.9-974.7-1037.8
		C10059.6,8307.1,10384.5,7961.2,11034.3,7961.2z M11032.4,8136.1c-156.9,0-235.4,287.6-235.4,862.9c0,575.3,78.5,862.9,235.4,862.9
		c158.2,0,237.4-287.6,237.4-862.9C11269.7,8423.8,11190.6,8136.1,11032.4,8136.1z"/>
	<path d="M13837.8,8521.4l-344.3,60.9c0-296.1-136.2-444.2-408.6-444.2c-167.3,0-251,69.5-251,208.3c0,102.2,144,212.3,431.9,330.2
		c441,182.2,661.5,413.4,661.5,693.8c0,446.8-280.8,670.2-842.4,670.2c-594.1,0-891.1-223.4-891.1-670.2l365.8-74.7
		c-5.2,43.2-7.8,83.9-7.8,121.9c0,115.3,47.6,215.6,143,300.7c95.3,85.2,207.8,127.8,337.5,127.8c171.2,0,256.8-73.4,256.8-220.1
		c0-98.3-138.1-207-414.4-326.3c-416.3-180.8-624.5-412.8-624.5-695.8c0-187.4,79.8-341,239.3-460.9
		c159.5-119.9,364.4-179.9,614.8-179.9C13549.2,7963.2,13793.7,8149.2,13837.8,8521.4z"/>
</g>
<path class="st0" d="M10261.5,3744.5c30.8-156.7,60.7-308.9,90.5-461c73-372.9,143.6-746.2,219.3-1118.7
	c109.9-540.1,223.1-1079.7,336.3-1619.4c7.2-34.2-5.5-52-48-57.7c-133.7-17.9-267.5-34.9-401.1-53.1c-45.9-6.2-65,8.6-71.5,42.7
	c-16.3,85.1-34.8,170-53.7,254.7c-52.4,235.3-105.7,470.4-158.2,705.6c-67.6,303.3-134.9,606.7-202.1,910.1
	c-79.9,360.7-159.5,721.5-239.1,1082.3c-18.4,83.4-36,166.9-54.4,252.3c-43.6-0.7-84.4-2.8-124.9-1.7c-45.3,1.2-90.9,2.8-135,9.1
	c-16.2,2.3-37.7,17.7-39.8,29.3c-1.8,10.3,16.9,28.8,32.1,34.8c36.5,14.5,75.7,25.7,114.9,34.9c50.9,12,102.9,21,155.9,31.5
	c-21.5,133-42.5,263-63.4,393c-98.5,612.2-183,1226-231.9,1843c-43.4,547.6-74.3,1096.3-99.7,1645.1
	c-15.8,339.4-17.8,679.8-13.9,1019.9c5.1,448.7,16.6,897.6,35.8,1346.4c15.5,363.3,42.9,726.6,72.1,1089.8
	c14.3,177.8,39.2,355.6,69.4,532.6c29.2,171.2,189,296.2,394.2,322.2c0.9-2.2,2.7-4.5,2.6-6.7c-14.3-212.1-30.4-424.3-42.9-636.4
	c-23.6-398.8-49.1-797.5-66.6-1196.3c-15.5-352.5-27.6-705.1-29.6-1057.3c-2.4-425.5-2.8-851.2,14.6-1275.8
	c17.8-434.5,45.5-868.9,92-1301.2c56.7-526.9,134.9-1051.9,209.2-1577.1c42-297,94.7-592.8,143.1-889c11-67.1,23.7-134,35.4-199.6
	c82.9-2.3,161.3-2.7,239.1-7.5c35.1-2.2,87.2,0.1,88.5-37.2c1.3-35.9-49.8-40.8-84.8-48.6
	C10387,3765.9,10326.8,3756.6,10261.5,3744.5z"/>
</svg>
