<?xml version="1.0" encoding="utf-8"?>
<!-- Generator: Adobe Illustrator 16.0.0, SVG Export Plug-In . SVG Version: 6.00 Build 0)  -->
<!DOCTYPE svg PUBLIC "-//W3C//DTD SVG 1.1//EN" "http://www.w3.org/Graphics/SVG/1.1/DTD/svg11.dtd">
<svg version="1.1" id="Layer_1" xmlns="http://www.w3.org/2000/svg" xmlns:xlink="http://www.w3.org/1999/xlink" x="0px" y="0px"
	 width="200px" height="200px" viewBox="0 0 200 200" enable-background="new 0 0 200 200" xml:space="preserve">
<style>
	*{fill:#000000;}
</style>
<g>
	<path fill="#181818" d="M178.75,178.75H21.25V21.25h157.5V178.75z M28.75,171.25h142.5V28.75H28.75V171.25z"/>
	<path fill="#181818" d="M160.417,160.417H39.583V39.583h120.833V160.417z M47.083,152.917h105.833V47.083H47.083V152.917z"/>
	<g>
		<rect x="39.583" fill="#181818" width="7.5" height="16.667"/>
		<rect x="55.773" fill="#181818" width="7.5" height="16.667"/>
		<rect x="71.964" fill="#181818" width="7.5" height="16.667"/>
		<rect x="88.154" fill="#181818" width="7.5" height="16.667"/>
		<rect x="104.346" fill="#181818" width="7.5" height="16.667"/>
		<rect x="120.535" fill="#181818" width="7.5" height="16.667"/>
		<rect x="136.726" fill="#181818" width="7.5" height="16.667"/>
		<rect x="152.917" fill="#181818" width="7.5" height="16.667"/>
	</g>
	<g>
		<rect x="39.583" y="183.333" fill="#181818" width="7.5" height="16.667"/>
		<rect x="55.773" y="183.333" fill="#181818" width="7.5" height="16.667"/>
		<rect x="71.964" y="183.333" fill="#181818" width="7.5" height="16.667"/>
		<rect x="88.154" y="183.333" fill="#181818" width="7.5" height="16.667"/>
		<rect x="104.346" y="183.333" fill="#181818" width="7.5" height="16.667"/>
		<rect x="120.535" y="183.333" fill="#181818" width="7.5" height="16.667"/>
		<rect x="136.726" y="183.333" fill="#181818" width="7.5" height="16.667"/>
		<rect x="152.917" y="183.333" fill="#181818" width="7.5" height="16.667"/>
	</g>
	<g>
		<rect x="183.333" y="39.583" fill="#181818" width="16.667" height="7.5"/>
		<rect x="183.333" y="55.775" fill="#181818" width="16.667" height="7.5"/>
		<rect x="183.333" y="71.966" fill="#181818" width="16.667" height="7.5"/>
		<rect x="183.333" y="88.154" fill="#181818" width="16.667" height="7.5"/>
		<rect x="183.333" y="104.346" fill="#181818" width="16.667" height="7.5"/>
		<rect x="183.333" y="120.537" fill="#181818" width="16.667" height="7.5"/>
		<rect x="183.333" y="136.726" fill="#181818" width="16.667" height="7.5"/>
		<rect x="183.333" y="152.917" fill="#181818" width="16.667" height="7.5"/>
	</g>
	<g>
		<rect y="39.583" fill="#181818" width="16.667" height="7.5"/>
		<rect y="55.775" fill="#181818" width="16.667" height="7.5"/>
		<rect y="71.966" fill="#181818" width="16.667" height="7.5"/>
		<rect y="88.154" fill="#181818" width="16.667" height="7.5"/>
		<rect y="104.346" fill="#181818" width="16.667" height="7.5"/>
		<rect y="120.537" fill="#181818" width="16.667" height="7.5"/>
		<rect y="136.726" fill="#181818" width="16.667" height="7.5"/>
		<rect y="152.917" fill="#181818" width="16.667" height="7.5"/>
	</g>
	<g>
		<rect x="73.751" y="73.753" fill="#191818" width="7.5" height="7.5"/>
		<rect x="88.751" y="73.753" fill="#191818" width="7.5" height="7.5"/>
		<rect x="103.752" y="73.753" fill="#191818" width="7.5" height="7.5"/>
		<rect x="118.752" y="73.753" fill="#191818" width="7.5" height="7.5"/>
		<rect x="73.751" y="88.753" fill="#191818" width="7.5" height="7.5"/>
		<rect x="88.751" y="88.753" fill="#191818" width="7.5" height="7.5"/>
		<rect x="103.752" y="88.753" fill="#191818" width="7.5" height="7.5"/>
		<rect x="118.752" y="88.753" fill="#191818" width="7.5" height="7.5"/>
		<rect x="73.751" y="103.753" fill="#191818" width="7.5" height="7.5"/>
		<rect x="88.751" y="103.753" fill="#191818" width="7.5" height="7.5"/>
		<rect x="103.752" y="103.753" fill="#191818" width="7.5" height="7.5"/>
		<rect x="118.752" y="103.753" fill="#191818" width="7.5" height="7.5"/>
		<rect x="73.751" y="118.753" fill="#191818" width="7.5" height="7.5"/>
		<rect x="88.751" y="118.753" fill="#191818" width="7.5" height="7.5"/>
		<rect x="103.752" y="118.753" fill="#191818" width="7.5" height="7.5"/>
		<rect x="118.752" y="118.753" fill="#191818" width="7.5" height="7.5"/>
	</g>
</g>
</svg>
