<?xml version="1.0" encoding="utf-8"?>
<!-- Generator: Adobe Illustrator 16.0.0, SVG Export Plug-In . SVG Version: 6.00 Build 0)  -->
<!DOCTYPE svg PUBLIC "-//W3C//DTD SVG 1.1//EN" "http://www.w3.org/Graphics/SVG/1.1/DTD/svg11.dtd">
<svg version="1.1" id="Layer_1" xmlns="http://www.w3.org/2000/svg" xmlns:xlink="http://www.w3.org/1999/xlink" x="0px" y="0px"
	 width="200px" height="200px" viewBox="0 0 200 200" enable-background="new 0 0 200 200" xml:space="preserve">
<style>
	*{fill:#ffffff;}
</style>
<g>
	<polygon fill="#181818" points="132.067,194.659 67.927,194.659 67.927,173.359 75.458,173.359 75.458,187.128 124.536,187.128 
		124.536,173.359 132.067,173.359 	"/>
	<rect x="55.544" y="187.128" fill="#181818" width="88.915" height="7.531"/>
	<path fill="#181818" d="M200,143.257H0V15.899c0-2.813,1.095-5.462,3.083-7.461c2.012-2.002,4.661-3.097,7.476-3.097h178.883
		c2.828,0,5.482,1.1,7.467,3.097c1.994,1.996,3.092,4.647,3.092,7.461V143.257z M7.532,135.726h184.937V15.899
		c0-0.806-0.317-1.567-0.896-2.146c-0.565-0.569-1.32-0.881-2.132-0.881H10.559c-0.808,0-1.572,0.317-2.151,0.891
		c-0.561,0.564-0.876,1.327-0.876,2.136V135.726z"/>
	<path fill="#181818" d="M189.441,165.894H10.555c-2.834,0-5.488-1.101-7.469-3.098C1.102,160.821,0,158.167,0,155.338v-19.612h200
		v19.612c0,2.829-1.102,5.483-3.105,7.475C194.931,164.793,192.276,165.894,189.441,165.894z M7.532,143.257v12.081
		c0,0.811,0.314,1.569,0.882,2.137c0.574,0.578,1.329,0.888,2.141,0.888h178.886c0.814,0,1.569-0.31,2.125-0.871
		c0.589-0.584,0.902-1.344,0.902-2.153v-12.081H7.532z"/>
	<path fill="#181818" d="M183.963,127.217H16.041V21.378h167.922V127.217z M23.572,119.685h152.86V28.909H23.572V119.685z"/>
	<g>
		<path fill="#181818" d="M100.002,104.346c-16.563,0-30.039-13.48-30.039-30.05c0-16.566,13.476-30.045,30.039-30.045
			c16.564,0,30.042,13.479,30.042,30.045C130.044,90.865,116.566,104.346,100.002,104.346z M100.002,51.781
			c-12.41,0-22.508,10.099-22.508,22.514c0,12.417,10.098,22.519,22.508,22.519c12.413,0,22.51-10.103,22.51-22.519
			C122.513,61.88,112.415,51.781,100.002,51.781z"/>
		<path fill="#181818" d="M100.002,87.806c-7.442,0-13.494-6.061-13.494-13.51c0-7.446,6.052-13.505,13.494-13.505
			c7.441,0,13.491,6.059,13.491,13.505C113.493,81.745,107.443,87.806,100.002,87.806z M100.002,68.322
			c-3.287,0-5.962,2.68-5.962,5.974c0,3.297,2.675,5.979,5.962,5.979c3.286,0,5.959-2.682,5.959-5.979
			C105.962,71.002,103.288,68.322,100.002,68.322z"/>
		<g>
			<rect x="96.237" y="37.479" fill="#181818" width="7.532" height="10.537"/>
			
				<rect x="78.956" y="43.205" transform="matrix(0.4998 0.8661 -0.8661 0.4998 82.8122 -49.457)" fill="#181818" width="10.539" height="7.531"/>
			
				<rect x="67.41" y="54.764" transform="matrix(0.8655 0.5009 -0.5009 0.8655 39.0915 -28.5347)" fill="#181818" width="10.547" height="7.531"/>
			<rect x="63.181" y="70.53" fill="#181818" width="10.548" height="7.531"/>
			
				<rect x="68.918" y="84.794" transform="matrix(0.5009 0.8655 -0.8655 0.5009 114.2278 -17.9565)" fill="#181818" width="7.531" height="10.547"/>
			
				<rect x="80.461" y="96.356" transform="matrix(0.866 0.5 -0.5 0.866 62.1035 -28.4989)" fill="#181818" width="7.531" height="10.539"/>
			<rect x="96.237" y="100.58" fill="#181818" width="7.532" height="10.535"/>
			
				<rect x="110.505" y="97.86" transform="matrix(0.5002 0.8659 -0.8659 0.5002 145.8555 -49.4601)" fill="#181818" width="10.542" height="7.531"/>
			
				<rect x="122.051" y="86.3" transform="matrix(0.8657 0.5006 -0.5006 0.8657 62.1861 -51.6392)" fill="#181818" width="10.546" height="7.532"/>
			<rect x="126.278" y="70.53" fill="#181818" width="10.542" height="7.531"/>
			
				<rect x="123.557" y="53.254" transform="matrix(0.5009 0.8655 -0.8655 0.5009 114.1997 -80.9863)" fill="#181818" width="7.531" height="10.55"/>
			
				<rect x="112.01" y="41.699" transform="matrix(0.866 0.5 -0.5 0.866 39.0012 -51.5988)" fill="#181818" width="7.531" height="10.542"/>
		</g>
	</g>
</g>
</svg>
